<?xml version="1.0" standalone="no"?>
<!DOCTYPE svg PUBLIC "-//W3C//DTD SVG 20010904//EN"
 "http://www.w3.org/TR/2001/REC-SVG-20010904/DTD/svg10.dtd">
<svg version="1.0" xmlns="http://www.w3.org/2000/svg"
 width="1200.000000pt" height="1200.000000pt" viewBox="0 0 1200.000000 1200.000000"
 preserveAspectRatio="xMidYMid meet">
<metadata>
Created by potrace 1.14, written by Peter Selinger 2001-2017
</metadata>
<g transform="translate(0.000000,1200.000000) scale(0.100000,-0.100000)"
fill="#000000" stroke="none">
<path d="M5677 10953 c-1 -1 -33 -4 -72 -7 -38 -4 -88 -9 -110 -11 -22 -3 -66
-7 -98 -10 -32 -2 -77 -7 -100 -10 -23 -2 -63 -7 -89 -10 -95 -9 -100 -13
-114 -77 -1 -5 -2 -39 -3 -76 -1 -48 -5 -69 -13 -69 -7 0 -37 -3 -66 -8 -31
-4 -51 -3 -50 2 2 5 -10 39 -25 75 -41 93 -52 97 -173 63 -55 -15 -108 -30
-119 -35 -11 -4 -92 -29 -180 -55 -206 -61 -263 -83 -274 -103 -10 -21 -6 -75
14 -162 5 -21 1 -27 -27 -38 -18 -8 -43 -19 -56 -25 -18 -9 -25 -7 -37 9 -8
10 -15 22 -15 26 -1 20 -86 108 -104 108 -12 0 -105 -46 -266 -133 -41 -22
-109 -58 -150 -80 -180 -95 -210 -116 -210 -147 0 -30 39 -143 52 -148 10 -5
-2 -32 -14 -32 -6 0 -27 -13 -48 -30 l-37 -29 -29 35 c-34 41 -81 79 -110 88
-22 7 -85 -35 -179 -118 -22 -20 -43 -36 -46 -36 -3 0 -21 -14 -40 -31 -19
-17 -47 -40 -62 -52 -16 -12 -36 -29 -45 -37 -8 -8 -32 -28 -51 -43 -99 -79
-141 -121 -141 -143 0 -25 28 -80 67 -132 l24 -33 -23 -19 c-13 -11 -27 -19
-31 -20 -5 0 -6 -3 -4 -7 3 -5 -3 -16 -13 -26 -15 -15 -20 -16 -31 -5 -19 18
-119 79 -119 73 0 -3 -9 -1 -21 5 -18 10 -26 6 -62 -33 -23 -24 -49 -52 -57
-63 -24 -30 -104 -128 -110 -134 -3 -3 -32 -39 -65 -80 -60 -74 -76 -94 -105
-128 -89 -102 -89 -120 -11 -204 l59 -63 -19 -25 c-10 -14 -23 -30 -29 -37 -5
-7 -10 -17 -10 -23 0 -11 -23 -14 -33 -3 -12 11 -110 43 -141 45 -21 2 -33 -4
-45 -21 -17 -25 -108 -192 -213 -391 -33 -63 -64 -119 -69 -124 -5 -6 -9 -18
-9 -28 0 -10 -4 -18 -9 -18 -5 0 -11 -12 -14 -27 -4 -23 3 -35 41 -72 26 -24
62 -50 80 -58 30 -12 31 -15 20 -36 -7 -12 -13 -24 -13 -27 0 -3 -6 -19 -14
-37 -12 -30 -32 -36 -59 -19 -4 2 -37 7 -74 11 l-67 7 -21 -34 c-11 -18 -20
-43 -20 -55 0 -12 -4 -24 -9 -27 -5 -3 -12 -23 -17 -43 -8 -42 -8 -42 -17 -63
-3 -8 -20 -62 -37 -120 -17 -58 -35 -116 -40 -130 -14 -42 -41 -138 -45 -157
-2 -10 -4 -18 -5 -18 -1 0 -3 -11 -4 -25 -2 -13 4 -32 13 -42 14 -15 85 -50
142 -70 14 -5 14 -13 4 -65 l-12 -58 -54 -1 c-83 -1 -128 -12 -143 -37 -8 -12
-17 -57 -21 -100 -4 -43 -8 -88 -10 -100 -2 -12 -6 -56 -10 -97 -3 -41 -7 -93
-10 -115 -2 -22 -7 -65 -9 -95 -3 -30 -8 -83 -12 -116 -5 -55 -4 -64 16 -82
22 -20 84 -39 170 -51 7 -1 7 -118 0 -124 -3 -3 -23 -7 -45 -10 -124 -17 -149
-40 -140 -129 2 -29 7 -82 11 -118 3 -36 7 -76 9 -90 4 -24 12 -113 20 -211 2
-24 6 -60 9 -79 2 -19 8 -56 11 -82 8 -60 23 -69 127 -73 43 -1 81 -5 83 -7 2
-2 6 -19 9 -38 3 -19 6 -43 8 -54 3 -20 -3 -25 -72 -53 -60 -24 -91 -47 -94
-69 -3 -22 3 -48 82 -309 123 -404 109 -376 186 -374 34 1 75 7 92 14 35 14
54 5 54 -27 0 -10 5 -18 10 -18 6 0 10 -8 10 -18 0 -10 5 -23 11 -29 7 -7 -3
-18 -36 -37 -25 -15 -61 -42 -79 -61 -40 -40 -39 -48 12 -145 45 -86 117 -220
158 -297 121 -224 123 -227 158 -230 25 -2 79 15 124 39 18 10 35 18 37 18 3
0 17 -19 32 -43 15 -23 31 -45 36 -48 4 -3 -15 -30 -43 -59 -28 -29 -57 -65
-65 -81 -15 -27 -13 -30 47 -111 34 -46 67 -87 74 -93 6 -5 28 -32 50 -60 21
-27 44 -54 50 -60 6 -5 28 -32 50 -60 119 -151 163 -196 189 -191 29 5 82 33
123 64 l33 25 45 -45 c40 -39 44 -47 31 -60 -25 -24 -77 -123 -77 -145 0 -23
62 -80 245 -228 61 -49 115 -93 120 -99 6 -6 28 -24 50 -41 22 -16 49 -38 60
-48 65 -61 105 -56 180 24 50 54 41 54 121 4 l31 -19 -24 -54 c-13 -30 -26
-73 -29 -97 -8 -54 -26 -41 291 -211 50 -26 122 -65 160 -86 176 -94 180 -95
239 -23 25 31 46 60 46 63 0 4 4 13 9 20 7 11 16 10 52 -7 23 -12 49 -21 56
-21 16 0 16 0 -1 -81 -14 -69 -11 -118 8 -131 6 -5 70 -26 141 -49 186 -58
195 -61 208 -63 7 -2 19 -6 27 -9 17 -7 153 -47 172 -51 7 -2 20 -5 28 -8 77
-28 89 -27 120 4 17 16 30 38 30 49 0 10 4 19 10 19 5 0 12 16 16 36 4 19 12
38 19 40 7 3 36 -1 65 -8 l52 -14 0 -69 c0 -75 15 -126 38 -131 50 -10 72 -13
130 -18 135 -13 166 -16 220 -22 124 -14 291 -27 318 -26 13 1 29 8 37 16 15
14 45 119 45 155 0 19 6 21 63 21 l64 0 12 -67 c19 -104 37 -128 91 -125 48 3
182 14 205 17 17 2 62 7 100 10 39 4 84 8 100 10 128 12 177 17 197 20 42 5
78 24 79 42 6 83 8 105 13 110 2 3 1 16 -4 29 -11 28 -3 34 49 42 70 10 74 9
83 -26 5 -18 23 -56 40 -83 29 -48 33 -51 67 -46 20 2 45 7 56 10 54 15 234
70 355 107 74 23 156 48 183 56 74 23 85 56 58 173 -6 27 -6 51 -1 60 5 9 10
13 10 9 0 -4 21 2 46 13 26 11 48 18 49 17 1 -2 9 -15 16 -30 25 -47 91 -118
110 -118 29 0 584 291 618 325 18 18 8 85 -23 149 l-24 49 49 34 c27 18 51 33
53 33 3 0 26 -22 51 -49 57 -61 93 -78 128 -59 25 13 327 257 460 371 45 39
67 65 67 80 0 20 -37 90 -74 142 -13 18 -12 23 8 45 12 14 32 33 43 43 21 19
22 18 56 -7 19 -14 38 -26 42 -26 5 0 16 -6 24 -14 9 -8 30 -17 47 -20 33 -7
50 8 144 123 19 24 43 53 53 65 10 11 31 36 45 55 15 19 32 39 37 45 39 44
139 169 182 229 21 28 21 32 6 60 -8 17 -37 52 -63 77 l-48 47 29 44 c16 24
30 48 32 52 1 4 28 -3 59 -17 31 -14 74 -27 96 -29 33 -4 44 -1 61 19 12 13
21 31 21 39 0 8 3 15 8 15 4 0 12 10 18 23 6 12 66 128 135 257 68 129 127
245 131 257 7 27 -34 74 -99 113 -24 14 -43 29 -43 35 0 5 10 33 21 61 l22 51
41 -12 c22 -6 66 -13 97 -14 55 -2 55 -2 72 36 14 32 95 286 101 318 1 6 16
55 33 110 17 55 37 119 43 143 6 24 13 49 16 56 7 18 -44 76 -67 76 -10 0 -19
4 -19 9 0 4 -21 14 -46 21 -39 11 -45 16 -39 34 3 12 9 37 12 56 3 19 7 37 9
39 3 3 39 5 82 6 117 2 124 10 137 150 4 33 8 76 11 95 2 19 6 64 9 100 3 36
8 85 11 110 10 93 16 167 18 222 l3 57 -44 21 c-24 11 -67 24 -96 28 l-52 7
-1 63 c0 36 4 63 10 63 6 1 20 3 31 4 11 1 46 10 78 19 80 23 81 28 63 211 -3
22 -5 40 -6 40 0 0 -3 29 -5 65 -2 36 -7 85 -10 110 -6 60 -15 145 -20 200
-10 104 -20 127 -58 136 -18 4 -62 6 -99 6 -57 -1 -67 1 -67 16 0 9 -4 35 -10
57 -5 22 -7 43 -3 46 4 3 33 16 66 29 66 26 104 59 101 86 -2 21 -23 101 -32
124 -3 8 -8 26 -10 40 -2 13 -9 30 -15 37 -6 7 -8 13 -4 13 3 0 0 17 -8 38 -8
20 -24 71 -36 112 -12 41 -35 115 -51 164 -16 49 -29 93 -29 99 0 5 -10 18
-22 29 -18 15 -32 17 -81 13 -33 -3 -67 -10 -76 -15 -9 -4 -20 -10 -25 -12 -5
-1 -21 24 -36 57 l-26 59 56 37 c87 56 107 89 81 134 -3 6 -6 12 -6 15 -1 6
-37 75 -75 145 -15 28 -40 75 -56 105 -15 30 -38 72 -51 93 -13 20 -20 37 -17
37 4 0 1 8 -7 18 -8 9 -28 42 -44 72 -45 86 -63 107 -90 104 -30 -3 -89 -22
-123 -40 -39 -20 -44 -18 -79 35 l-31 48 47 47 c26 25 54 59 64 75 16 27 16
29 -14 76 -17 26 -36 53 -42 60 -7 6 -28 31 -47 55 -277 343 -331 402 -359
393 -39 -13 -79 -34 -116 -62 l-40 -30 -42 47 c-41 45 -42 47 -25 67 33 38 72
114 72 139 0 16 -43 64 -96 106 -40 32 -299 245 -304 250 -3 3 -21 17 -42 32
-20 15 -42 33 -50 40 -53 49 -83 43 -160 -34 l-53 -54 -51 36 -50 35 24 54
c14 30 27 73 29 95 5 40 3 42 -46 74 -27 17 -53 32 -56 32 -4 0 -20 9 -36 21
-16 11 -29 17 -29 13 0 -3 -7 -1 -15 6 -8 7 -41 25 -72 42 -32 16 -92 48 -133
71 -41 23 -77 40 -79 38 -2 -1 -7 1 -10 6 -8 11 -63 37 -73 35 -5 -1 -8 2 -8
7 0 8 -52 31 -71 31 -14 0 -65 -55 -95 -101 -16 -24 -29 -46 -31 -48 -2 -3
-77 27 -111 45 -1 0 4 30 11 65 15 74 13 117 -5 134 -11 11 -99 44 -133 51 -5
1 -93 28 -195 59 -316 98 -343 104 -364 82 -13 -14 -61 -110 -71 -145 -3 -12
-11 -19 -17 -16 -6 4 -23 9 -37 10 -14 2 -35 6 -46 8 -11 3 -24 5 -28 5 -4 1
-3 9 2 20 6 10 8 20 6 23 -3 2 -7 31 -9 64 -3 50 -13 94 -20 94 -1 0 -27 4
-57 9 -30 6 -85 13 -124 17 -38 3 -81 7 -95 9 -14 1 -61 5 -105 10 -44 4 -93
8 -110 10 -90 11 -197 16 -214 10 -24 -7 -57 -101 -60 -167 -1 -15 -11 -18
-66 -18 -56 0 -65 3 -65 18 0 35 -31 137 -47 154 -13 15 -30 18 -85 16 -38 -2
-70 -4 -71 -5z"/>
</g>
</svg>
